<svg xmlns="http://www.w3.org/2000/svg" width="256" height="256" fill="none" viewBox="0 0 256 256" id="github">
  <rect width="224" height="224" x="16" y="16" fill="#EEE" rx="70"></rect>
  <path fill="#1F2328" d="M128.001 61.333C164.834 61.333 194.667 91.1663 194.667 128C194.664 141.968 190.28 155.584 182.133 166.93C173.985 178.276 162.485 186.782 149.251 191.25C145.917 191.916 144.667 189.833 144.667 188.083C144.667 185.833 144.751 178.666 144.751 169.75C144.751 163.5 142.667 159.5 140.251 157.416C155.084 155.75 170.667 150.083 170.667 124.5C170.667 117.166 168.084 111.25 163.834 106.583C164.501 104.916 166.834 98.083 163.167 88.9163C163.167 88.9163 157.584 87.083 144.834 95.7497C139.501 94.2497 133.834 93.4997 128.167 93.4997C122.501 93.4997 116.834 94.2497 111.501 95.7497C98.7507 87.1663 93.1673 88.9163 93.1673 88.9163C89.5007 98.083 91.834 104.916 92.5007 106.583C88.2507 111.25 85.6673 117.25 85.6673 124.5C85.6673 150 101.167 155.75 116.001 157.416C114.084 159.083 112.334 162 111.751 166.333C107.917 168.083 98.334 170.916 92.334 160.833C91.084 158.833 87.334 153.916 82.084 154C76.5007 154.083 79.834 157.166 82.1673 158.416C85.0007 160 88.2507 165.916 89.0007 167.833C90.334 171.583 94.6673 178.75 111.417 175.666C111.417 181.25 111.501 186.5 111.501 188.083C111.501 189.833 110.251 191.833 106.917 191.25C93.6393 186.83 82.0901 178.341 73.9081 166.988C65.726 155.635 61.3266 141.994 61.334 128C61.334 91.1663 91.1673 61.333 128.001 61.333Z"></path>
</svg>
